# AST/ASF file generated using VICON BodyLanguage
# -----------------------------------------------
:version 1.10
:name VICON
:units
  mass 1.0
  length 0.45
  angle deg
:documentation
   .ast/.asf automatically generated from VICON data using
   VICON BodyBuilder and BodyLanguage model FoxedUp or BRILLIANT.MOD
:root
   order TX TY TZ RX RY RZ
   axis XYZ
   position 0 0 0  
   orientation 0 0 0 
:bonedata
  begin
     id 1 
     name lhipjoint
     direction 0.700308 -0.549349 0.455834 
     length 2.59063 
     axis 0 0 0  XYZ
  end
  begin
     id 2 
     name lfemur
     direction 0.34202 -0.939693 0  
     length 6.31066  
     axis 0 0 20  XYZ
    dof rx ry rz
    limits (-160.0 20.0)
           (-70.0 70.0)
           (-60.0 70.0)
  end
  begin
     id 3 
     name ltibia
     direction 0.34202 -0.939693 0   
     length 7.36093   
     axis 0 0 20   XYZ
    dof rx
    limits (-10.0 170.0)
  end
  begin
     id 4 
     name lfoot
     direction 0.0905332 -0.248738 0.96433   
     length 2.0233   
     axis -90 7.62852e-016 20   XYZ
    dof rx rz
    limits (-45.0 90.0)
           (-70.0 20.0)
  end
  begin
     id 5 
     name ltoes
     direction 1.53573e-011 -4.21855e-011 1   
     length 1.01524   
     axis -90 7.62852e-016 20   XYZ
    dof rx
    limits (-90.0 20.0)
  end
  begin
     id 6 
     name rhipjoint
     direction -0.61416 -0.607328 0.503944   
     length 2.34332  
     axis 0 0 0  XYZ 
  end
  begin
     id 7 
     name rfemur
     direction -0.34202 -0.939693 0   
     length 6.58548   
     axis 0 0 -20   XYZ
    dof rx ry rz
    limits (-160.0 20.0)
           (-70.0 70.0)
           (-70.0 60.0)
  end
  begin
     id 8 
     name rtibia
     direction -0.34202 -0.939693 0   
     length 7.20707   
     axis 0 0 -20   XYZ
    dof rx
    limits (-10.0 170.0)
 end
 begin
     id 9 
     name rfoot
     direction -0.136772 -0.375778 0.916561   
     length 1.92184  
     axis -90 -7.62852e-016 -20   XYZ
    dof rx rz
    limits (-45.0 90.0)
           (-20.0 70.0)
  end
  begin
     id 10 
     name rtoes
     direction -1.53535e-011 -4.21828e-011 1   
     length 0.951089   
     axis -90 -7.62852e-016 -20   XYZ
    dof rx
    limits (-90.0 20.0)
  end
  begin
     id 11 
     name lowerback
     direction -0.0444974 0.988086 -0.147332   
     length 1.9609   
     axis 0 0 0   XYZ
    dof rx ry rz
    limits (-20.0 45.0)
           (-30.0 30.0)
           (-30.0 30.0)
  end
  begin
     id 12 
     name upperback
     direction 0.00613146 0.999513 0.0306081   
     length 1.94944   
     axis 0 0 0   XYZ
    dof rx ry rz
    limits (-20.0 45.0)
           (-30.0 30.0)
           (-30.0 30.0)
  end
  begin
     id 13 
     name thorax
     direction 0.0254621 0.994518 0.101418   
     length 2.0119   
     axis 0 0 0   XYZ
    dof rx ry rz
    limits (-20.0 45.0)
           (-30.0 30.0)
           (-30.0 30.0)
  end
  begin
     id 14 
     name lowerneck
     direction 0.0168698 0.977854 0.208608   
     length 1.6375   
     axis 0 0 0   XYZ
    dof rx ry rz
    limits (-20.0 45.0)
           (-30.0 30.0)
           (-30.0 30.0)
  end
  begin
     id 15 
     name upperneck
     direction -0.0283988 0.989338 -0.142843   
     length 1.6851   
     axis 0 0 0   XYZ
    dof rx ry rz
    limits (-20.0 45.0)
           (-30.0 30.0)
           (-30.0 30.0)
  end
  begin
     id 16
     name head
     direction -0.0129422 0.99741 -0.0707489  
     length 1.69029  
     axis 0 0 0   XYZ
    dof rx ry rz
    limits (-20.0 45.0)
           (-30.0 30.0)
           (-30.0 30.0)
  end
  begin
     id 17 
     name lclavicle
     direction 0.820295 0.564628 -0.0911715  
     length 3.16484  
     axis 0 0 0   XYZ
    dof ry rz
    limits (-20.0 10.0)
           (0.0 20.0)
  end
  begin
     id 18 
     name lhumerus
     direction 1 -4.48969e-011 1.00186e-027   
     length 5.17853   
     axis 180 -30 -90   XYZ
    dof rx ry rz
    limits (-60.0 90.0)
           (-90.0 90.0)
           (-90.0 90.0)
  end
  begin
     id 19
     name lradius
     direction 1 -4.48966e-011 -1.52922e-027   
     length 3.40399   
     axis 180 -30 -90   XYZ
    dof rx
    limits (-10.0 170.0)
  end
  begin
     id 20
     name lwrist
     direction 1 -4.48981e-011 -3.80893e-027   
     length 1.70199   
     axis 1.1049e-015 90 90   XYZ
    dof ry
    limits (-180.0 0.0)
 end
  begin
     id 21 
     name lhand
     direction 1 -4.48957e-011 -7.61786e-027   
     length 0.708964   
     axis 4.86085e-015 90 90   XYZ
    dof rx rz
    limits (-90.0 90.0)
           (-45.0 45.0)
  end
  begin
     id 22 
     name lfingers
     direction 1 -4.48929e-011 -1.52357e-026   
     length 0.571585   
     axis 9.7217e-015 90 90   XYZ
    dof rx
    limits (0.0 90.0)
  end
  begin
     id 23
     name lthumb
     direction 0.707107 -6.34905e-011 0.707107   
     length 0.820685   
     axis -90 45 2.85299e-015   XYZ
    dof rx rz
    limits (-45.0 45.0)
           (-45.0 45.0)
  end
  begin
     id 24 
     name rclavicle
     direction -0.858602 0.463947 -0.218075   
     length 3.35137  
     axis 0 0 0   XYZ 
    dof ry rz
    limits (-10.0 20.0)
           (-20.0 0.0)
  end
  begin
     id 25 
     name rhumerus
     direction -1 -4.48969e-011 -1.98511e-027  
     length 5.42351   
     axis 180 30 90   XYZ
    dof rx ry rz
    limits (-90.0 60.0)
           (-90.0 90.0)
           (-90.0 90.0)
  end
  begin
     id 26 
     name rradius
     direction -1 -4.48961e-011 -2.82624e-027   
     length 3.42066   
     axis 180 30 90   XYZ
    dof rx
    limits (-10.0 170.0)
  end
  begin
     id 27 
     name rwrist
     direction -1 -4.48966e-011 -3.80893e-027   
     length 1.71033   
     axis 1.1049e-015 -90 -90   XYZ
    dof ry
    limits (-180.0 0.0)
  end
  begin
     id 28
     name rhand
     direction -1 -4.48964e-011 -7.61786e-027   
     length 0.743608   
     axis 4.86085e-015 -90 -90   XYZ
    dof rx rz
    limits (-90.0 90.0)
           (-45.0 45.0)
  end
  begin
     id 29
     name rfingers
     direction -1 -4.48961e-011 -1.52357e-026   
     length 0.599516   
     axis 9.7217e-015 -90 -90   XYZ
    dof rx
    limits (0.0 90.0)
  end
  begin
     id 30
     name rthumb
     direction -0.707107 -6.34913e-011 0.707107   
     length 0.860789   
     axis -90 -45 -2.85299e-015   XYZ
    dof rx rz
    limits (-45.0 45.0)
           (-45.0 45.0)
  end
:hierarchy
  begin
    root lhipjoint rhipjoint lowerback
    lhipjoint lfemur
    lfemur ltibia
    ltibia lfoot
    lfoot ltoes
    rhipjoint rfemur
    rfemur rtibia
    rtibia rfoot
    rfoot rtoes
    lowerback upperback
    upperback thorax
    thorax lowerneck lclavicle rclavicle
    lowerneck upperneck
    upperneck head
    lclavicle lhumerus
    lhumerus lradius
    lradius lwrist
    lwrist lhand lthumb
    lhand lfingers
    rclavicle rhumerus
    rhumerus rradius
    rradius rwrist
    rwrist rhand rthumb
    rhand rfingers
  end

#!OML:ASF E:\mmandel\Project 1\Capture day 1\Session 2\Subject.ASF
:FULLY-SPECIFIED
:DEGREES
147
root 23.6562 2.4509 -1.27875 33.9923 76.1665 -62.3188
lowerback -2.98288 2.65082 -7.72622
upperback -3.36562 3.7728 1.63393
thorax -2.43859 2.14505 6.04512
lowerneck -11.5819 3.04141 3.44922
upperneck -5.96469 3.80902 -8.2982
head 0.343369 1.89921 -3.1335
rclavicle 7.51406e-014 2.79044e-014
rhumerus -39.7775 -29.1555 -61.5259
rradius 40.3976
rwrist -413.751
rhand -32.1424 29.6086
rfingers 7.12502
rthumb -5.38626 -0.302985
lclavicle 7.51406e-014 2.79044e-014
lhumerus -50.1726 15.4695 71.1823
lradius 50.6917
lwrist 78.5736
lhand -34.6173 -38.5103
lfingers 7.12502
lthumb -7.77542 -8.67327
rfemur -44.6531 -51.1929 28.6524
rtibia 71.4225
rfoot -3.46337 -5.50567
rtoes -14.232
lfemur -6.11703 6.71773 -13.7219
ltibia 25.1628
lfoot -13.4415 -7.49127
ltoes 14.2023
148
root 23.6562 2.44915 -1.27486 33.9069 76.2929 -62.3699
lowerback -3.00036 2.6167 -7.60719
upperback -3.37899 3.72685 1.64566
thorax -2.42719 2.11941 5.99144
lowerneck -11.3867 3.09305 3.71817
upperneck -6.08896 3.83997 -8.67145
head 0.289353 1.91378 -3.31481
rclavicle -7.55382e-014 -3.49861e-014
rhumerus -40.0806 -28.8705 -61.6613
rradius 41.2513
rwrist -414.477
rhand -32.3539 30.617
rfingers 7.12502
rthumb -5.59043 0.710733
lclavicle -7.55382e-014 -3.49861e-014
lhumerus -50.4847 15.3631 71.1252
lradius 51.3615
lwrist 78.9067
lhand -34.639 -38.8181
lfingers 7.12502
lthumb -7.79632 -8.98182
rfemur -44.4368 -51.2398 28.5648
rtibia 71.3576
rfoot -3.48943 -5.43838
rtoes -15.6208
lfemur -6.12174 6.83066 -13.6215
ltibia 25.2601
lfoot -13.5652 -7.56247
ltoes 13.6155
149
root 23.6554 2.44959 -1.27032 33.5759 76.4159 -62.614
lowerback -2.95036 2.60597 -7.49791
upperback -3.38859 3.70783 1.68123
thorax -2.45671 2.10944 5.96434
lowerneck -11.2976 3.09255 3.6927
upperneck -6.02894 3.84409 -8.63756
head 0.292389 1.91547 -3.2985
rclavicle -3.65764e-014 -2.70099e-014
rhumerus -40.4565 -28.5692 -61.7559
rradius 42.1529
rwrist -415.303
rhand -32.2528 31.4576
rfingers 7.12502
rthumb -5.49284 1.54875
lclavicle -3.65764e-014 -2.70099e-014
lhumerus -50.8363 15.2591 71.0675
lradius 51.9807
lwrist 78.9934
lhand -34.3533 -38.4722
lfingers 7.12502
lthumb -7.52057 -8.62589
rfemur -44.1212 -51.2598 28.4617
rtibia 71.2652
rfoot -3.46446 -5.31427
rtoes -16.8451
lfemur -6.07454 6.94177 -13.4641
ltibia 25.3638
lfoot -13.658 -7.70339
ltoes 13.5836
150
root 23.6507 2.45165 -1.26547 33.3553 76.4405 -62.7274
lowerback -2.8653 2.60758 -7.43423
upperback -3.38825 3.70259 1.69759
thorax -2.4998 2.10695 5.94101
lowerneck -11.0982 3.13794 3.64496
upperneck -6.14249 3.90693 -8.67425
head 0.225464 1.95464 -3.30217
rclavicle -4.77083e-014 5.65791e-014
rhumerus -40.8328 -27.9829 -61.9941
rradius 43.2174
rwrist -416.135
rhand -32.3192 31.8617
rfingers 7.12502
rthumb -5.55697 1.95453
lclavicle -4.77083e-014 5.65791e-014
lhumerus -51.1099 15.2297 70.9965
lradius 52.546
lwrist 79.1868
lhand -34.2027 -37.9782
lfingers 7.12502
lthumb -7.37527 -8.12674
rfemur -43.7483 -51.1711 28.255
rtibia 71.1627
rfoot -3.3503 -5.0908
rtoes -15.5152
lfemur -6.01278 7.00165 -13.3974
ltibia 25.4688
lfoot -13.6864 -7.72355
ltoes 13.2685
151
root 23.6475 2.45372 -1.26166 33.2578 76.4953 -62.7496
lowerback -2.79648 2.58814 -7.30649
upperback -3.3834 3.66879 1.6936
thorax -2.51834 2.08675 5.8616
lowerneck -10.947 3.1589 3.47808
upperneck -6.22609 3.95236 -8.5495
head 0.167696 1.98653 -3.22769
rclavicle 7.59357e-014 1.01504e-013
rhumerus -41.1209 -27.4435 -62.2656
rradius 44.2197
rwrist -416.582
rhand -32.4793 31.6202
rfingers 7.12502
rthumb -5.7115 1.71721
lclavicle 7.59357e-014 1.01504e-013
lhumerus -51.2753 15.1696 70.9551
lradius 53.0423
lwrist 79.5421
lhand -34.3302 -37.8373
lfingers 7.12502
lthumb -7.49832 -7.99021
rfemur -43.4435 -51.1184 28.062
rtibia 71.0801
rfoot -3.215 -4.88237
rtoes -13.9932
lfemur -5.97269 7.0093 -13.3564
ltibia 25.5071
lfoot -13.6471 -7.61853
ltoes 12.3948
152
root 23.6484 2.45533 -1.25974 33.4711 76.6522 -62.5246
lowerback -2.77816 2.51409 -7.17979
upperback -3.42217 3.56477 1.66785
thorax -2.5419 2.03282 5.76236
lowerneck -10.6586 3.19547 3.57334
upperneck -6.37221 3.98486 -8.60838
head 0.0774698 2.00907 -3.26939
rclavicle -5.80451e-014 -5.22804e-014
rhumerus -41.3753 -26.984 -62.552
rradius 45.0576
rwrist -416.757
rhand -32.7276 31.6236
rfingers 7.12502
rthumb -5.95121 1.7272
lclavicle -5.80451e-014 -5.22804e-014
lhumerus -51.4258 15.0923 70.8838
lradius 53.437
lwrist 79.7793
lhand -34.4673 -37.9874
lfingers 7.12502
lthumb -7.63066 -8.14501
rfemur -43.3387 -51.2217 27.9761
rtibia 71.0437
rfoot -3.09275 -4.69782
rtoes -14.4441
lfemur -5.99924 6.83813 -13.3472
ltibia 25.4673
lfoot -13.624 -7.52333
ltoes 11.8967
153
root 23.6528 2.45718 -1.25731 33.9451 76.7627 -62.0671
lowerback -2.79554 2.44272 -7.14494
upperback -3.47114 3.46769 1.62097
thorax -2.56263 1.98464 5.69422
lowerneck -10.4341 3.22578 3.83608
upperneck -6.39694 3.99267 -8.87312
head 0.0459147 2.00993 -3.41387
rclavicle -6.36111e-014 -3.23771e-014
rhumerus -41.6477 -26.4812 -62.8592
rradius 45.9439
rwrist -417.02
rhand -33.1812 31.9751
rfingers 7.12502
rthumb -6.38916 2.09148
lclavicle -6.36111e-014 -3.23771e-014
lhumerus -51.6539 14.9822 70.816
lradius 53.9303
lwrist 79.8962
lhand -34.6718 -38.3044
lfingers 7.12502
lthumb -7.82799 -8.46937
rfemur -43.4038 -51.3438 27.9302
rtibia 71.057
rfoot -2.97939 -4.59047
rtoes -16.7409
lfemur -6.04977 6.65367 -13.4128
ltibia 25.4045
lfoot -13.6138 -7.43673
ltoes 12.0608
